<?xml version="1.0" standalone="no"?>
<!DOCTYPE svg PUBLIC "-//W3C//DTD SVG 20010904//EN"
 "http://www.w3.org/TR/2001/REC-SVG-20010904/DTD/svg10.dtd">
<svg version="1.0" xmlns="http://www.w3.org/2000/svg"
 width="225.000000pt" height="225.000000pt" viewBox="0 0 225.000000 225.000000"
 preserveAspectRatio="xMidYMid meet">
<metadata>
Created by potrace 1.14, written by Peter Selinger 2001-2017
</metadata>
<g transform="translate(0.000000,225.000000) scale(0.100000,-0.100000)"
fill="#000000" stroke="none">
<path d="M0 1125 l0 -1125 247 2 247 3 33 58 c38 64 66 75 77 31 4 -15 2 -32
-3 -37 -8 -8 -11 -7 -11 4 -1 11 -30 -45 -30 -57 0 -2 58 -4 129 -4 102 0 130
3 134 14 4 9 -4 18 -23 24 -22 8 -30 7 -34 -4 -3 -8 -10 -14 -16 -14 -6 0 -6
7 2 20 13 20 41 34 90 44 32 7 77 80 79 128 l1 33 8 -30 c6 -22 8 -25 10 -10
1 11 1 25 0 30 -1 6 -2 17 -1 25 0 8 1 36 1 63 -1 35 3 47 14 47 11 0 13 -12
9 -59 -8 -82 1 -114 29 -105 20 6 21 5 6 -10 -9 -9 -23 -16 -32 -16 -8 0 -18
-5 -22 -12 -4 -7 -3 -8 4 -4 17 11 15 -9 -3 -24 -8 -7 -15 -19 -15 -26 0 -20
37 -17 45 3 6 17 7 17 16 0 8 -13 14 -15 29 -7 24 13 30 13 30 -1 0 -12 -67
-42 -79 -35 -5 3 -19 -4 -32 -17 -18 -16 -35 -21 -64 -19 l-40 2 29 -16 c31
-17 84 -21 130 -9 21 6 27 5 22 -4 -5 -8 51 -11 216 -11 160 0 219 3 208 11
-11 8 -8 9 15 4 36 -9 265 -19 265 -12 0 13 -29 70 -30 58 0 -11 -3 -12 -11
-4 -5 5 -7 22 -3 37 11 45 43 30 78 -36 l31 -58 233 0 232 0 0 264 c0 244 -1
265 -17 269 -17 4 -17 5 0 6 16 1 17 32 17 511 l0 510 -46 0 c-32 0 -44 4 -41
13 2 8 18 11 45 9 l42 -4 0 336 0 336 -485 0 c-267 0 -485 -2 -485 -4 0 -2 24
-15 53 -29 82 -39 127 -97 127 -166 0 -7 10 -29 22 -49 28 -45 27 -131 -1
-221 -15 -50 -30 -74 -68 -110 -26 -25 -51 -46 -54 -46 -3 0 -13 -8 -23 -18
-10 -9 -42 -29 -72 -43 -30 -14 -54 -30 -54 -35 0 -6 -4 -7 -10 -4 -5 3 -10 1
-10 -4 0 -11 -35 -10 -46 2 -12 12 -35 8 -51 -8 -19 -20 -67 -12 -143 23 -30
14 -61 25 -67 25 -7 0 -13 3 -13 7 0 4 -20 28 -45 54 -44 47 -65 95 -65 148 0
15 -7 31 -15 36 -9 5 -18 29 -22 60 -5 48 -3 57 26 96 17 25 31 48 31 53 0 9
112 127 143 151 9 6 20 12 25 12 14 0 136 51 147 61 5 5 -210 9 -543 9 l-552
0 0 -1125z m603 1072 c-13 -6 -32 -6 -50 0 -25 9 -23 10 22 10 39 0 45 -2 28
-10z m-283 -102 c-7 -8 -17 -15 -22 -15 -11 0 14 29 26 30 5 0 3 -7 -4 -15z
m-40 -40 c-7 -8 -18 -15 -24 -15 -6 0 -2 7 8 15 25 19 32 19 16 0z m1290 -45
c13 -8 13 -10 -2 -10 -9 0 -20 5 -23 10 -8 13 5 13 25 0z m306 -147 c22 -9 42
-16 47 -15 4 1 7 -2 7 -7 0 -4 24 -9 53 -10 28 -1 72 -6 97 -10 37 -7 40 -9
15 -10 -26 -2 -27 -4 -10 -11 19 -8 19 -9 -3 -9 -13 -1 -35 5 -50 12 -15 7
-40 13 -57 12 -16 0 -51 9 -77 22 -26 13 -52 23 -57 23 -6 0 -13 5 -16 10 -9
14 7 12 51 -7z m-1283 -200 c-7 -2 -19 -2 -25 0 -7 3 -2 5 12 5 14 0 19 -2 13
-5z m1330 -100 c-7 -2 -21 -2 -30 0 -10 3 -4 5 12 5 17 0 24 -2 18 -5z m85 0
c-10 -2 -28 -2 -40 0 -13 2 -5 4 17 4 22 1 32 -1 23 -4z m-145 -10 c-7 -2 -19
-2 -25 0 -7 3 -2 5 12 5 14 0 19 -2 13 -5z m-731 -87 c-2 -20 -8 -36 -13 -36
-10 0 -11 25 -3 57 9 35 21 19 16 -21z m-83 -13 c-4 -40 1 -47 16 -27 14 18
14 18 14 -6 -1 -14 -5 -36 -9 -50 -7 -23 -8 -23 -9 -3 -1 32 -20 38 -30 11
-15 -35 -14 5 1 53 12 41 21 51 17 22z m80 -130 c-4 -18 -4 -35 -1 -38 4 -3 5
-21 4 -40 -2 -18 1 -36 7 -39 6 -4 8 -13 5 -21 -6 -15 23 -65 38 -65 5 0 20
12 33 26 14 15 25 22 25 16 0 -6 -4 -14 -10 -17 -5 -3 -10 -11 -10 -17 0 -6 3
-8 7 -5 10 11 63 -44 63 -66 0 -10 -5 -27 -11 -38 -9 -18 -12 -19 -22 -5 -10
13 -14 13 -25 0 -7 -8 -10 -14 -7 -14 3 0 -1 -15 -9 -34 -10 -24 -12 -54 -9
-97 6 -60 5 -62 -15 -57 -12 4 -25 2 -28 -3 -3 -5 -14 -9 -25 -9 -10 0 -20 -3
-20 -7 -5 -31 -8 -96 -11 -210 -2 -72 -6 -129 -9 -127 -4 2 -6 79 -5 171 l1
168 -27 3 c-19 2 -28 11 -33 30 -7 24 -8 25 -14 8 -5 -13 -10 -16 -15 -8 -3 6
-13 9 -21 5 -20 -7 -19 7 6 64 12 26 21 57 21 69 0 16 6 20 30 19 16 -1 31 2
34 6 6 10 -30 21 -48 14 -11 -5 -17 8 -24 58 -8 54 -8 64 4 59 20 -7 5 38 -19
59 -11 9 -19 21 -19 27 0 6 -9 16 -20 22 -18 10 -50 58 -50 76 0 14 41 -30 71
-77 17 -27 35 -49 40 -49 5 0 9 -7 9 -15 0 -18 12 -19 28 -3 9 9 12 3 12 -31
0 -25 4 -40 10 -36 6 3 10 24 10 46 0 23 7 47 15 55 11 12 15 40 15 113 0 54
3 101 8 105 11 11 19 -54 11 -91z m-59 -7 c0 -7 2 -29 6 -47 l5 -34 -15 34
c-18 38 -20 61 -6 61 6 0 10 -6 10 -14z m195 -11 c14 -13 26 -32 26 -42 1 -10
3 -30 4 -44 3 -22 0 -26 -15 -22 -11 3 -18 8 -17 12 4 14 -61 62 -68 51 -8
-13 -35 -13 -35 1 0 5 4 8 9 5 5 -3 11 1 14 8 4 10 -2 16 -16 18 -21 3 -20 5
8 20 41 24 62 22 90 -7z m375 -49 c0 -3 -4 -8 -10 -11 -5 -3 -10 -1 -10 4 0 6
5 11 10 11 6 0 10 -2 10 -4z m-70 -92 c-43 -18 -46 -18 -26 5 11 12 25 17 38
13 18 -4 16 -7 -12 -18z m-852 -12 c2 -7 -2 -10 -12 -6 -9 3 -16 11 -16 16 0
13 23 5 28 -10z m52 -43 c0 -5 11 -7 24 -3 21 5 24 3 19 -15 -3 -12 -13 -21
-25 -21 -10 0 -17 4 -14 9 7 11 -20 34 -33 27 -5 -3 -11 0 -14 7 -4 10 2 13
19 9 13 -2 24 -8 24 -13z m820 11 c0 -14 -46 -31 -65 -24 -22 9 -18 22 8 27
41 8 57 7 57 -3z m-234 -65 c10 -8 14 -15 8 -15 -5 0 -19 7 -30 15 -10 8 -14
15 -8 15 5 0 19 -7 30 -15z m-25 -22 c13 -16 12 -17 -3 -4 -17 13 -22 21 -14
21 2 0 10 -8 17 -17z m40 -77 c67 -102 99 -160 99 -179 0 -11 -14 7 -31 41
-17 33 -56 92 -85 131 -30 39 -54 73 -54 76 0 16 42 -25 71 -69z m67 44 c6 0
14 -5 18 -12 5 -8 -2 -9 -27 -4 -39 8 -54 20 -44 36 5 8 12 7 24 -4 10 -9 23
-16 29 -16z m-1244 -165 c-6 -16 -24 -21 -24 -7 0 11 11 22 21 22 5 0 6 -7 3
-15z m1912 -13 c2 -30 -13 -28 -19 3 -3 16 0 24 7 22 6 -2 12 -13 12 -25z
m-1436 -3 c0 -6 -4 -7 -10 -4 -5 3 -10 11 -10 16 0 6 5 7 10 4 6 -3 10 -11 10
-16z m954 6 c-4 -8 -11 -15 -16 -15 -6 0 -5 6 2 15 7 8 14 15 16 15 2 0 1 -7
-2 -15z m-1394 -20 c-7 -9 -15 -13 -18 -10 -3 2 1 11 8 20 7 9 15 13 18 10 3
-2 -1 -11 -8 -20z m1836 -12 c2 -16 1 -16 -12 1 -8 11 -14 24 -14 30 0 16 24
-12 26 -31z m-1326 13 c0 -3 -4 -8 -10 -11 -5 -3 -10 -1 -10 4 0 6 5 11 10 11
6 0 10 -2 10 -4z m489 -71 c25 -70 25 -75 7 -75 -21 0 -25 -77 -7 -130 9 -25
26 -59 39 -77 12 -17 22 -36 22 -41 0 -6 10 -18 22 -26 17 -12 25 -13 36 -4
11 10 13 8 10 -12 -2 -19 -8 -24 -23 -22 -24 5 -55 31 -55 47 0 7 -8 23 -19
36 l-18 23 -12 -78 c-15 -101 -14 -121 4 -136 8 -7 15 -18 15 -24 0 -6 9 -17
20 -24 17 -11 20 -10 20 7 0 13 6 18 18 16 9 -1 24 4 33 12 28 24 98 -16 80
-46 -7 -10 -13 -11 -30 -2 -18 10 -21 9 -21 -9 0 -13 10 -24 27 -31 32 -12 55
-5 47 15 -3 8 0 17 7 22 9 5 10 2 6 -11 -6 -14 -3 -16 15 -12 13 3 39 10 58
15 34 8 35 10 32 50 -1 26 2 42 9 42 6 0 9 7 6 14 -4 10 -1 13 8 10 8 -3 17
-16 21 -27 3 -12 17 -37 31 -54 19 -27 21 -31 6 -26 -15 6 -16 4 -5 -9 10 -13
10 -19 -4 -33 -14 -13 -15 -18 -4 -25 12 -7 9 -74 -4 -87 -13 -14 -27 12 -21
39 5 21 4 28 -4 24 -6 -4 -13 4 -17 19 -7 28 -22 33 -30 10 -4 -9 -19 -15 -41
-15 -31 0 -34 -2 -22 -16 11 -14 9 -15 -27 -9 -21 4 -55 12 -74 18 -19 6 -37
11 -40 12 -3 0 -11 4 -17 8 -17 11 -33 0 -33 -23 0 -19 -17 -36 -26 -27 -3 3
-1 15 6 26 9 17 8 25 -4 36 -19 19 -27 19 -19 -1 5 -14 3 -14 -15 -3 -13 8
-17 16 -11 20 17 10 -27 18 -72 12 -39 -6 -41 -5 -37 18 2 20 9 24 46 27 44 3
60 22 17 22 l-24 0 23 44 c21 39 22 49 13 102 -5 33 -10 88 -11 123 -1 51 -6
65 -21 75 -14 8 -20 22 -20 48 0 20 3 40 7 43 4 4 5 26 2 49 -5 32 -2 46 14
63 10 13 22 20 26 16 3 -3 6 0 6 7 0 22 7 9 29 -55z m-1023 31 c8 -9 10 -17 5
-21 -6 -3 -15 4 -21 15 -12 23 -5 26 16 6z m1894 5 c0 -12 -26 -32 -33 -25 -6
7 14 33 26 34 4 0 7 -4 7 -9z m-1480 -15 c0 -3 -4 -8 -10 -11 -5 -3 -10 -1
-10 4 0 6 5 11 10 11 6 0 10 -2 10 -4z m357 -33 c-3 -10 -5 -4 -5 12 0 17 2
24 5 18 2 -7 2 -21 0 -30z m-336 -20 c-12 -20 -14 -14 -5 12 4 9 9 14 11 11 3
-2 0 -13 -6 -23z m1007 -8 c-3 -3 -9 2 -12 12 -6 14 -5 15 5 6 7 -7 10 -15 7
-18z m-644 0 c-4 -8 -10 -13 -14 -10 -5 3 -11 -1 -13 -7 -4 -8 -6 -7 -6 4 -1
15 11 25 31 27 4 1 5 -6 2 -14z m-289 -95 c2 0 15 5 29 11 14 7 33 8 43 4 10
-5 27 -7 38 -6 17 2 16 -2 -10 -26 -30 -29 -93 -63 -115 -63 -6 0 -9 -4 -5 -9
3 -6 -3 -14 -12 -20 -12 -7 -13 -10 -4 -11 8 0 11 -6 7 -16 -4 -12 -1 -14 13
-9 11 3 22 1 26 -5 3 -5 -2 -10 -13 -10 -11 0 -25 -7 -32 -15 -11 -13 -10 -14
6 -8 17 6 17 5 5 -10 -7 -9 -22 -17 -32 -17 -12 0 -19 -7 -19 -19 0 -18 2 -18
29 -5 33 17 68 9 51 -11 -8 -9 -7 -14 2 -18 8 -2 -2 -13 -23 -26 -20 -11 -41
-32 -47 -46 -6 -14 -17 -26 -24 -26 -7 -1 -19 -2 -27 -3 -8 0 -16 -8 -18 -16
-4 -13 -3 -13 6 0 9 13 11 13 11 -1 0 -9 -10 -23 -22 -31 l-23 -15 -2 150 c-1
117 2 155 13 172 14 21 13 24 -21 44 -20 11 -47 23 -62 25 -36 7 -40 14 -17
31 26 20 50 19 72 -3 13 -13 29 -17 60 -14 26 3 42 0 42 -7 0 -6 -8 -8 -17 -4
-14 4 -15 3 -7 -6 15 -17 36 -6 64 36 18 27 26 32 28 20 2 -9 5 -17 7 -17z
m885 -5 c17 -28 25 -33 35 -25 8 6 31 10 52 8 26 -2 43 2 56 15 9 9 25 17 35
17 23 -1 61 -31 46 -37 -7 -2 -9 -13 -7 -24 5 -19 12 -21 97 -18 50 2 95 8 99
14 6 7 10 6 13 -2 4 -8 24 -10 62 -7 46 4 54 3 38 -7 -26 -16 -202 -22 -316
-11 -52 5 -98 7 -103 5 -4 -2 -2 -14 5 -26 14 -26 20 -213 8 -270 -6 -29 -5
-40 6 -44 8 -3 14 -9 14 -14 0 -11 -42 9 -52 25 -12 17 -9 38 4 30 7 -4 8 -3
4 5 -4 6 -13 11 -19 10 -27 -3 -37 2 -51 30 -8 15 -28 34 -44 40 -21 9 -29 19
-29 36 0 39 39 42 80 7 17 -15 17 -14 9 9 -5 13 -13 24 -18 24 -5 0 -20 8 -34
18 -18 12 -20 17 -8 17 13 0 16 7 13 30 -3 19 0 30 8 30 7 0 4 5 -6 11 -9 6
-15 14 -12 20 4 5 -4 9 -17 9 -13 1 -86 2 -163 2 l-140 2 135 5 c115 5 131 8
110 18 -36 18 -74 52 -66 60 4 4 16 1 28 -6 18 -11 20 -11 14 4 -5 14 -2 16
21 13 16 -3 36 -9 46 -13 12 -5 17 -3 17 9 0 24 6 20 30 -19z m-1330 15 c0 -5
-2 -10 -4 -10 -3 0 -8 5 -11 10 -3 6 -1 10 4 10 6 0 11 -4 11 -10z m1760 6 c0
-11 -19 -15 -25 -6 -3 5 1 10 9 10 9 0 16 -2 16 -4z m-1760 -47 c0 -6 -4 -7
-10 -4 -5 3 -10 11 -10 16 0 6 5 7 10 4 6 -3 10 -11 10 -16z m1754 6 c-4 -8
-8 -15 -10 -15 -2 0 -4 7 -4 15 0 8 4 15 10 15 5 0 7 -7 4 -15z m-674 -109 c0
-2 -7 -7 -16 -10 -8 -3 -12 -2 -9 4 6 10 25 14 25 6z m-193 -28 c-3 -8 -6 -5
-6 6 -1 11 2 17 5 13 3 -3 4 -12 1 -19z m428 12 c3 -5 -1 -10 -9 -10 -9 0 -16
5 -16 10 0 6 4 10 9 10 6 0 13 -4 16 -10z m-815 -10 c0 -5 -2 -10 -4 -10 -3 0
-8 5 -11 10 -3 6 -1 10 4 10 6 0 11 -4 11 -10z m760 6 c0 -3 -4 -8 -10 -11 -5
-3 -10 -1 -10 4 0 6 5 11 10 11 6 0 10 -2 10 -4z m-750 -36 c0 -5 -2 -10 -4
-10 -3 0 -8 5 -11 10 -3 6 -1 10 4 10 6 0 11 -4 11 -10z m-15 -60 c3 -5 1 -10
-4 -10 -6 0 -11 5 -11 10 0 6 2 10 4 10 3 0 8 -4 11 -10z m765 0 c0 -5 -5 -10
-11 -10 -5 0 -7 5 -4 10 3 6 8 10 11 10 2 0 4 -4 4 -10z m-515 -62 c-1 -13 -3
-30 -4 -39 0 -9 -9 -19 -19 -21 -13 -4 -18 2 -18 23 -1 15 5 30 12 33 8 3 14
13 14 21 0 9 4 14 9 11 4 -3 7 -16 6 -28z m132 0 c-3 -7 -5 -2 -5 12 0 14 2
19 5 13 2 -7 2 -19 0 -25z m133 23 c0 -6 -4 -13 -10 -16 -5 -3 -10 1 -10 9 0
9 5 16 10 16 6 0 10 -4 10 -9z m-580 -42 c0 -5 5 -7 10 -4 6 4 8 -3 6 -17 -3
-13 -5 -38 -5 -57 -1 -32 -2 -33 -33 -27 -18 3 -38 7 -45 8 -7 1 -2 13 13 30
13 16 24 37 24 47 0 10 3 21 7 24 10 10 23 8 23 -4z m127 -121 c-3 -7 -5 -2
-5 12 0 14 2 19 5 13 2 -7 2 -19 0 -25z m-586 -22 c3 -32 1 -42 -8 -39 -15 6
-18 83 -4 83 5 0 11 -20 12 -44z m-121 -2 c0 -13 5 -24 11 -24 7 0 9 10 7 25
-3 14 -1 25 3 25 16 0 10 -58 -6 -64 -16 -6 -19 -2 -30 47 -4 19 -2 26 5 22 5
-3 10 -17 10 -31z m1859 4 c1 38 21 34 21 -4 0 -14 4 -22 10 -19 6 3 7 17 4
31 -4 14 -2 24 5 24 6 0 12 -15 13 -32 l1 -33 4 33 c3 24 9 32 24 32 14 0 19
-8 21 -32 l1 -33 4 33 c5 41 23 42 23 1 0 -19 4 -28 11 -23 6 3 9 15 6 25 -3
10 -1 22 4 25 5 3 9 -9 9 -25 0 -17 5 -31 11 -31 6 0 9 12 7 26 -2 21 2 28 20
30 19 3 22 0 22 -31 l0 -36 -122 3 c-109 3 -123 5 -126 21 -2 10 0 26 4 35 6
13 9 9 14 -18 l7 -35 2 33z m-1771 -8 c4 -27 -17 -44 -35 -28 -17 13 -17 45 0
51 21 9 32 2 35 -23z m100 0 c0 -16 -4 -30 -9 -30 -5 0 -9 14 -9 30 0 17 4 30
8 30 5 0 9 -13 10 -30z m32 0 c0 -16 -4 -30 -10 -30 -5 0 -10 14 -10 30 0 17
5 30 10 30 6 0 10 -13 10 -30z m30 0 c0 -16 -2 -30 -4 -30 -2 0 -6 14 -8 30
-3 17 -1 30 4 30 4 0 8 -13 8 -30z m312 -50 c-7 -69 -42 -62 -42 8 0 29 3 33
23 30 19 -3 22 -8 19 -38z m683 4 c20 -15 20 -16 -4 -12 -14 2 -26 9 -29 16
-5 16 9 15 33 -4z m815 2 c0 -3 -4 -8 -10 -11 -5 -3 -10 -1 -10 4 0 6 5 11 10
11 6 0 10 -2 10 -4z m-763 -22 c-3 -3 -12 -4 -19 -1 -8 3 -5 6 6 6 11 1 17 -2
13 -5z"/>
<path d="M1077 846 c-4 -10 -5 -21 -2 -24 9 -9 17 6 13 25 -3 17 -4 17 -11 -1z"/>
<path d="M709 559 l-24 -20 28 17 c15 9 27 18 27 20 0 8 -8 4 -31 -17z"/>
<path d="M1540 577 c0 -3 12 -12 26 -22 15 -9 23 -12 20 -6 -7 11 -46 35 -46
28z"/>
<path d="M1640 560 c0 -5 5 -10 10 -10 6 0 10 5 10 10 0 6 -4 10 -10 10 -5 0
-10 -4 -10 -10z"/>
<path d="M1786 563 c-4 -5 -13 -8 -18 -8 -6 0 -13 -6 -15 -12 -5 -15 25 -17
47 -3 10 6 12 12 4 20 -6 6 -14 7 -18 3z"/>
<path d="M1630 481 c0 -6 4 -13 10 -16 6 -3 7 1 4 9 -7 18 -14 21 -14 7z"/>
<path d="M182 120 c0 -14 2 -19 5 -12 2 6 2 18 0 25 -3 6 -5 1 -5 -13z"/>
<path d="M1075 2184 c-175 -44 -277 -192 -244 -354 6 -30 19 -71 29 -91 37
-72 143 -145 221 -151 l34 -3 3 233 c1 147 6 232 12 232 7 0 8 -80 4 -236 l-7
-235 29 6 c92 20 116 30 167 76 71 63 101 129 101 224 0 160 -115 285 -275
299 -30 3 -63 3 -74 0z m138 -301 c-7 -2 -19 -2 -25 0 -7 3 -2 5 12 5 14 0 19
-2 13 -5z"/>
</g>
</svg>
